<svg viewBox="0 0 20 17" fill="none" xmlns="http://www.w3.org/2000/svg">
<path d="M13.2574 10.1022L19.9999 14.3647V5.65967L13.2574 10.1022Z"/>
<path d="M0 5.65967V14.3647L6.7425 10.1022L0 5.65967Z" />
<path d="M18.75 3.125H1.25004C0.626287 3.125 0.131287 3.59 0.0375366 4.18875L10 10.7525L19.9625 4.18875C19.8688 3.59 19.3738 3.125 18.75 3.125Z" />
<path d="M12.1125 10.8577L10.3437 12.0227C10.2387 12.0914 10.12 12.1252 9.99998 12.1252C9.87998 12.1252 9.76123 12.0914 9.65623 12.0227L7.88748 10.8564L0.039978 15.8202C0.136228 16.4139 0.628728 16.8752 1.24998 16.8752H18.75C19.3712 16.8752 19.8637 16.4139 19.96 15.8202L12.1125 10.8577Z"/>
</svg>
