<svg width="29" height="29" viewBox="0 0 29 29" fill="none" xmlns="http://www.w3.org/2000/svg">
<g clip-path="url(#clip0)">
<path d="M14.1341 0.006052C20.0235 -0.192421 24.8599 4.52254 24.8599 10.367C24.8599 16.9998 18.4946 21.8135 14.9269 28.7362C14.7458 29.0876 14.2398 29.0881 14.058 28.7367C10.8305 22.5077 5.31428 18.3308 4.29199 12.3298C3.23351 6.12003 7.83847 0.218302 14.1341 0.006052ZM14.493 15.7973C17.492 15.7973 19.9232 13.366 19.9232 10.367C19.9232 7.36806 17.4919 4.93676 14.493 4.93676C11.494 4.93676 9.06268 7.36806 9.06268 10.367C9.06268 13.366 11.494 15.7973 14.493 15.7973Z" fill="white"/>
</g>
<defs>
<clipPath id="clip0">
<rect width="29" height="29" fill="white" transform="matrix(-1 0 0 1 29 0)"/>
</clipPath>
</defs>
</svg>
