<svg width="26" height="26" viewBox="0 0 26 26" fill="none" xmlns="http://www.w3.org/2000/svg">
<g clip-path="url(#clip0)">
<path d="M9.75 13C9.75 14.7949 11.2051 16.25 13 16.25C14.7949 16.25 16.25 14.7949 16.25 13C16.25 11.2051 14.7949 9.75 13 9.75C11.2051 9.75 9.75 11.2051 9.75 13Z" fill="white"/>
<path d="M-1.42062e-07 13C-2.20521e-07 14.7949 1.45507 16.25 3.25 16.25C5.04493 16.25 6.5 14.7949 6.5 13C6.5 11.2051 5.04493 9.75 3.25 9.75C1.45507 9.75 -6.36033e-08 11.2051 -1.42062e-07 13Z" fill="white"/>
<path d="M19.5 13C19.5 14.7949 20.9551 16.25 22.75 16.25C24.5449 16.25 26 14.7949 26 13C26 11.2051 24.5449 9.75 22.75 9.75C20.9551 9.75 19.5 11.2051 19.5 13Z" fill="white"/>
</g>
<defs>
<clipPath id="clip0">
<rect width="26" height="26" fill="white" transform="translate(26) rotate(90)"/>
</clipPath>
</defs>
</svg>
