<?xml version="1.0" standalone="no"?>
<!DOCTYPE svg PUBLIC "-//W3C//DTD SVG 20010904//EN"
 "http://www.w3.org/TR/2001/REC-SVG-20010904/DTD/svg10.dtd">
<svg version="1.0" xmlns="http://www.w3.org/2000/svg"
 width="700.000000pt" height="700.000000pt" viewBox="0 0 700.000000 700.000000"
 preserveAspectRatio="xMidYMid meet">
<metadata>
Created by potrace 1.14, written by Peter Selinger 2001-2017
</metadata>
<g transform="translate(0.000000,700.000000) scale(0.100000,-0.100000)"
fill="#000000" stroke="none">
<path d="M3278 6996 c-1 -2 -42 -6 -89 -10 -47 -4 -95 -8 -105 -10 -10 -2 -48
-7 -84 -12 -36 -4 -67 -8 -70 -9 -3 -1 -25 -5 -50 -9 -25 -4 -101 -21 -170
-38 -69 -16 -134 -31 -146 -34 -28 -5 -262 -83 -299 -99 -16 -7 -61 -25 -99
-39 -241 -94 -572 -286 -816 -475 -435 -336 -826 -832 -1035 -1311 -25 -58
-50 -114 -55 -125 -45 -93 -150 -427 -176 -560 -2 -11 -10 -54 -19 -95 -29
-147 -36 -199 -52 -370 -15 -164 -8 -592 12 -711 2 -13 6 -46 9 -74 21 -182
109 -547 165 -680 5 -11 25 -65 46 -120 63 -166 249 -531 312 -610 4 -6 34
-49 65 -95 260 -389 674 -773 1113 -1032 373 -221 845 -385 1274 -444 25 -3
57 -8 71 -10 163 -25 682 -25 842 1 13 2 46 7 73 10 71 10 87 13 115 18 14 3
43 8 65 12 325 59 741 212 1039 384 49 28 91 51 93 51 10 0 268 180 353 247
151 118 324 281 450 422 36 41 70 79 76 85 65 68 263 353 352 508 46 79 172
331 172 342 0 3 11 29 24 58 57 127 151 421 182 573 16 77 54 301 60 350 4 33
9 76 11 95 8 69 10 517 2 595 -15 162 -21 220 -24 225 -2 3 -6 30 -10 60 -3
30 -10 71 -15 90 -5 19 -12 51 -15 70 -13 75 -67 275 -106 392 -348 1037
-1165 1855 -2204 2206 -167 56 -419 119 -555 137 -19 3 -46 7 -60 10 -13 2
-54 7 -90 11 -36 3 -76 8 -90 11 -27 5 -536 14 -542 9z m482 -591 c36 -3 112
-13 170 -21 89 -13 137 -22 260 -49 82 -17 283 -83 401 -131 241 -97 528 -263
708 -409 343 -279 597 -586 790 -956 159 -305 259 -626 306 -979 25 -192 25
-552 0 -727 -16 -109 -47 -274 -61 -323 -9 -30 -18 -63 -20 -73 -9 -50 -62
-206 -105 -316 -343 -860 -1086 -1514 -1984 -1746 -103 -27 -236 -53 -310 -61
-27 -3 -56 -7 -63 -9 -71 -23 -559 -24 -702 -1 -14 2 -47 7 -75 11 -96 12
-290 56 -408 90 -385 114 -796 342 -1092 605 -85 75 -265 262 -324 337 -35 43
-70 87 -79 98 -31 37 -139 200 -187 280 -219 371 -360 815 -392 1240 -14 185
-6 493 17 630 5 33 12 77 16 99 6 43 11 69 19 106 3 14 7 34 9 45 2 11 14 56
26 100 161 597 497 1118 974 1509 94 78 252 193 286 209 8 4 35 20 60 36 229
148 685 324 945 365 225 36 219 35 330 42 55 4 101 8 103 9 5 5 317 -3 382
-10z"/>
<path d="M2385 4655 c-135 -33 -235 -111 -295 -230 -37 -73 -40 -89 -44 -185
-14 -340 361 -560 656 -386 94 55 188 185 204 283 27 161 -12 289 -121 399
-109 110 -256 153 -400 119z"/>
<path d="M4421 4654 c-278 -72 -415 -367 -288 -624 34 -69 118 -152 189 -188
288 -145 624 53 632 373 5 161 -65 294 -201 384 -87 58 -229 81 -332 55z"/>
<path d="M1818 2858 l-68 -70 22 -32 c43 -60 127 -171 150 -197 13 -15 40 -46
60 -71 59 -70 205 -210 303 -289 231 -186 499 -323 759 -389 193 -49 249 -55
476 -54 144 0 211 5 301 22 304 57 594 189 861 394 171 132 400 375 536 570
l33 48 -71 71 -72 71 -41 -31 c-341 -255 -689 -415 -1057 -486 -243 -47 -641
-56 -885 -20 -22 3 -58 8 -80 11 -64 8 -273 60 -360 89 -159 53 -388 159 -484
224 -14 10 -57 38 -96 64 -92 59 -144 97 -175 125 -14 12 -29 22 -35 22 -5 -1
-40 -33 -77 -72z"/>
</g>
</svg>
